#N canvas 0 20 1920 997 12;
#X floatatom 1227 285 5 0 0 0 - - - 0;
#X floatatom 1130 328 5 0 0 0 - - - 0;
#X obj 1214 526 0.1;
#X obj 1259 527 0.2;
#X obj 1305 527 0.3;
#X obj 1351 527 0.4;
#X obj 1125 529 0;
#X obj 1123 486 t f b b b b b, f 33;
#X obj 894 224 phasor~;
#X text 1107 354 g;
#X text 1175 308 Alpha;
#X text 1058 385 IPF;
#X obj 1132 68 loadbang;
#X obj 1023 789 outlet;
#X obj 1100 814 outlet;
#X obj 1298 788 outlet;
#X obj 833 792 outlet;
#X text 772 343 Trigger IPF calculation after 1 Period;
#X obj 895 314 threshold~ 0.6 0 0.5 0;
#X obj 894 273 wrap~;
#X text 837 816 Trigger Out;
#X text 1031 811 g Out;
#X text 1159 808 derivative Out;
#X text 1316 810 2nd derivative Out;
#X obj 894 122 inlet;
#X obj 1211 122 inlet;
#X text 943 113 Frequency IN;
#X text 1253 123 Alpha IN;
#X obj 1124 594 expr $f1-$f2;
#X obj 1237 594 expr $f1-$f2;
#X obj 747 80 inlet;
#X text 791 81 trigger;
#X text 1025 257 g0;
#X text 1004 188 g0;
#X obj 1092 245 5;
#X text 1265 310 Stability of the system;
#X obj 1419 784 outlet;
#X obj 1354 596 expr $f1-$f2;
#X obj 1551 785 outlet;
#X obj 1490 598 expr $f1-$f2;
#X obj 1026 157 + 1;
#X floatatom 1057 134 5 0 0 0 - - - 0;
#N canvas 523 547 847 591 IPF_B 0;
#X obj 34 21 inlet;
#X obj 156 22 inlet;
#X obj 389 16 inlet;
#X text 74 21 trigger;
#X text 195 19 g;
#X text 432 16 alpha;
#X obj 72 210 expr $f2-log($f3);
#X text 530 20 beta;
#X obj 73 261 outlet;
#X text 129 262 g;
#X obj 243 27 inlet;
#X text 282 24 g-1;
#X obj 70 176 sel 1;
#X obj 488 18 inlet;
#X floatatom 384 149 5 0 0 0 - - - 0;
#X floatatom 297 259 5 0 0 0 - - - 0;
#X floatatom 213 186 5 0 0 0 - - - 0;
#X obj 146 150 expr if ($f1>0 \, 1 \, 0);
#X floatatom 488 88 5 0 0 0 - - - 0;
#X floatatom 389 41 5 0 0 0 - - - 0;
#X obj 150 110 expr $f2/$f4-($f5/$f4*exp($f2-$f3));
#X obj 47 80 spigot;
#X obj 388 188 outlet;
#X connect 0 0 21 0;
#X connect 1 0 6 1;
#X connect 1 0 20 1;
#X connect 1 0 21 1;
#X connect 2 0 19 0;
#X connect 2 0 20 3;
#X connect 6 0 15 0;
#X connect 6 0 8 0;
#X connect 10 0 20 2;
#X connect 12 0 6 0;
#X connect 12 1 8 0;
#X connect 13 0 20 4;
#X connect 14 0 22 0;
#X connect 16 0 21 1;
#X connect 17 0 12 0;
#X connect 17 0 16 0;
#X connect 17 0 14 0;
#X connect 20 0 6 2;
#X connect 20 0 17 0;
#X connect 21 0 20 0;
#X restore 1094 383 pd IPF_B;
#X f 35;
#X obj 972 219 1;
#X obj 1091 197 1;
#X obj 1375 129 inlet;
#X text 1425 131 Beta IN;
#X obj 1405 439 sel 0;
#X obj 1405 469 delay;
#X obj 1406 498 bng 19 250 50 0 empty empty empty 0 -10 0 12 #fcfcfc #000000 #000000;
#X obj 1526 239 vsl 19 162 0 1000 0 0 empty empty Reset\ Delay 0 -9 0 12 #fcfcfc #000000 #000000 0 1;
#X obj 1057 107 inlet;
#X floatatom 1409 375 5 0 0 0 - - - 0;
#X obj 1526 184 inlet;
#X text 1576 186 Delay IN;
#X obj 392 191 hsl 162 19 0.37 0.664 0 1 empty empty Alpha -2 -10 1 8 #fcfcfc #000000 #000000 0 1;
#X obj 116 126 bng 35 250 50 0 empty empty Retrigger 0 -10 1 8 #fcfcfc #000000 #000000;
#X obj 392 231 hsl 162 19 -300 300 0 0 empty empty Beta -2 -10 1 8 #fcfcfc #000000 #000000 0 1;
#X obj 30 24 loadbang;
#X msg 30 48 0.37;
#X msg 74 48 0;
#X obj 392 151 hsl 162 19 0 100 0 0 empty empty Frequency -2 -10 1 8 #fcfcfc #000000 #000000 0 1;
#X text 282 105 Impulse Pattern Formation;
#X floatatom 191 405 7 0 0 2 G - - 24;
#X floatatom 303 395 5 0 0 2 D-1 - - 8;
#X floatatom 332 395 5 0 0 2 D-2 - - 8;
#X floatatom 304 423 5 0 0 2 D-3 - - 8;
#X floatatom 333 423 5 0 0 2 D-4 - - 8;
#X obj 113 400 bng 35 250 50 0 empty empty Trig.\ Out 0 -10 1 8 #fcfcfc #000000 #000000;
#X floatatom 519 133 5 0 0 0 - - - 0;
#X floatatom 505 173 7 0 0 0 - - - 0;
#X floatatom 519 213 5 0 0 0 - - - 0;
#X msg 659 247 0;
#X obj 505 216 bng 15 250 50 0 empty empty empty 0 -10 0 12 #fcfcfc #000000 #000000;
#X obj 392 271 hsl 162 19 1 10 0 1 empty empty Initial\ Value -2 -10 1 8 #fcfcfc #000000 #000000 0 1;
#X floatatom 519 253 5 0 0 0 - - - 0;
#X obj 392 311 hsl 162 19 0 5 0 0 empty empty Smoothing\ (ms) -2 -10 1 8 #fcfcfc #000000 #000000 0 1;
#X floatatom 1058 402 5 0 0 0 - - - 0;
#X obj 1058 462 line;
#X floatatom 1058 492 5 0 0 0 - - - 0;
#X obj 1058 432 pack f f;
#X floatatom 519 293 5 0 0 0 - - - 0;
#X obj 816 686 expr if($f1 > -0.001 && $f1 < 0.001 \, 1 \, 0);
#X floatatom 816 710 5 0 0 0 - - - 0;
#X obj 1140 685 expr if($f1 > -0.001 && $f1 < 0.001 \, 1 \, 0);
#X obj 1141 707 expr if($f1 == 0 && $f2 == 1 \, 1 \, 0);
#X floatatom 1141 734 5 0 0 0 - - - 0;
#X obj 1495 689 expr if($f1 > -0.001 && $f1 < 0.001 \, 1 \, 0);
#X obj 1496 716 expr if($f1 == 0 && $f2 == 0 && $f3 == 1 \, 1 \, 0);
#X floatatom 1496 740 5 0 0 0 - - - 0;
#X text 292 774 1st order bifurcation: 0.5;
#X text 292 803 2nd order bifurcation: 0.41+;
#X text 293 829 Only if no Beta value;
#X text 292 746 Note:;
#X obj 393 411 tgl 25 0 empty empty Stability 0 -10 1 8 #fcfcfc #000000 #000000 0 1;
#X obj 483 411 tgl 25 0 empty empty 1st\ Order 0 -10 1 8 #fcfcfc #000000 #000000 0 1;
#X obj 528 411 tgl 25 0 empty empty 2nd\ Order\  0 -10 1 8 #fcfcfc #000000 #000000 0 1;
#X text 818 654 Stability;
#X text 1139 664 1st Order Bifurcation;
#X text 1628 666 2nd Order Bifurcation;
#X obj 575 153 vsl 50 195 0 1000 0 0 empty empty Reset\ Delay 0 -9 1 8 #fcfcfc #000000 #000000 0 1;
#X obj 628 151 bng 19 250 50 0 empty empty empty 0 -10 0 12 #fcfcfc #000000 #000000;
#X obj 461 686 expr if( $f1 == 0 && $f2 == 0 && $f3 == 0 \, 1 \, 0);
#X floatatom 461 715 5 0 0 0 - - - 0;
#X text 458 663 Chaos;
#X obj 438 411 tgl 25 0 empty empty Chaos 0 -10 1 8 #fcfcfc #000000 #000000 0 1;
#X obj 392 351 hsl 162 19 1 3 0 1 empty empty Scale -2 -10 1 8 #fcfcfc #000000 #000000 0 1;
#X obj 1118 784 *;
#X floatatom 519 333 5 0 0 0 - - - 0;
#X obj 1295 755 *;
#X obj 1411 753 *;
#X obj 1549 752 *;
#N canvas 0 0 450 300 (subpatch) 0;
#X array ipf 128 float 0;
#X coords 0 10 127 -10 241 178 1 0 0;
#X restore 121 186 graph;
#X obj 1741 269 tabwrite ipf;
#X obj 1589 321 int 1;
#X obj 1589 344 + 1;
#X floatatom 1618 400 5 0 0 0 - - - 0;
#X obj 1711 46 tabread ipf;
#X floatatom 1711 70 5 0 0 0 - - - 0;
#X obj 1837 40 array max ipf;
#X floatatom 1837 64 5 0 0 0 - - - 0;
#X floatatom 1684 121 5 0 0 0 - - - 0;
#X obj 1684 97 array min ipf;
#X obj 1837 88 abs;
#X obj 1683 145 abs;
#X obj 1836 115 max;
#N canvas 0 0 450 300 (subpatch) 0;
#X array ipfNorm 1024 float 0;
#X coords 0 1.1 1023 -1 241 178 1 0 0;
#X restore 1753 343 graph;
#X floatatom 1836 167 10 0 0 0 - - - 0;
#X floatatom 1695 242 14 0 0 0 - - - 0;
#X obj 1692 212 expr ($f1 - ($f2 + $f3));
#X obj 1836 139 expr if($f1 < 1e-07 \, 1 \, $f1);
#X obj 2047 317 tabread ipf;
#X obj 2047 341 /;
#X obj 2047 365 tabwrite ipfNorm;
#X obj 1955 257 t i i;
#X obj 1878 211 - 1;
#X obj 1878 235 % 1024;
#X obj 1618 376 % 128;
#X obj 1370 186 / 1000;
#X floatatom 1370 210 5 0 0 0 - - - 0;
#X connect 0 0 42 3;
#X connect 0 0 129 1;
#X connect 1 0 42 1;
#X connect 2 0 3 1;
#X connect 2 0 28 1;
#X connect 2 0 42 2;
#X connect 3 0 4 1;
#X connect 3 0 29 1;
#X connect 4 0 5 1;
#X connect 4 0 37 1;
#X connect 5 0 39 1;
#X connect 6 0 2 1;
#X connect 6 0 13 0;
#X connect 6 0 28 0;
#X connect 6 0 29 0;
#X connect 6 0 37 0;
#X connect 6 0 39 0;
#X connect 6 0 63 0;
#X connect 7 0 6 1;
#X connect 7 1 6 0;
#X connect 7 2 2 0;
#X connect 7 3 3 0;
#X connect 7 4 4 0;
#X connect 7 5 5 0;
#X connect 8 0 19 0;
#X connect 12 0 34 0;
#X connect 18 1 16 0;
#X connect 18 1 42 0;
#X connect 18 1 68 0;
#X connect 19 0 18 0;
#X connect 24 0 8 0;
#X connect 24 0 61 0;
#X connect 25 0 0 0;
#X connect 25 0 55 0;
#X connect 25 0 129 1;
#X connect 28 0 64 0;
#X connect 28 0 82 0;
#X connect 28 0 107 0;
#X connect 29 0 65 0;
#X connect 29 0 84 0;
#X connect 29 0 109 0;
#X connect 30 0 43 0;
#X connect 30 0 56 0;
#X connect 30 0 44 0;
#X connect 34 0 1 0;
#X connect 37 0 66 0;
#X connect 37 0 110 0;
#X connect 39 0 67 0;
#X connect 39 0 87 0;
#X connect 39 0 111 0;
#X connect 40 0 43 1;
#X connect 40 0 44 0;
#X connect 41 0 40 0;
#X connect 42 0 1 0;
#X connect 42 0 77 0;
#X connect 42 1 47 0;
#X connect 42 1 52 0;
#X connect 43 0 1 0;
#X connect 44 0 42 2;
#X connect 45 0 57 0;
#X connect 47 0 48 0;
#X connect 48 0 49 0;
#X connect 49 0 43 0;
#X connect 49 0 44 0;
#X connect 49 0 101 0;
#X connect 50 0 48 1;
#X connect 51 0 41 0;
#X connect 51 0 74 0;
#X connect 53 0 50 0;
#X connect 55 0 0 0;
#X connect 55 0 70 0;
#X connect 56 0 44 1;
#X connect 56 0 43 0;
#X connect 57 0 71 0;
#X connect 57 0 138 0;
#X connect 58 0 59 0;
#X connect 58 0 60 0;
#X connect 59 0 55 0;
#X connect 60 0 57 0;
#X connect 61 0 8 0;
#X connect 61 0 69 0;
#X connect 68 0 119 0;
#X connect 68 0 122 0;
#X connect 68 0 114 0;
#X connect 72 0 57 0;
#X connect 73 0 72 0;
#X connect 74 0 75 0;
#X connect 74 0 41 0;
#X connect 76 0 80 1;
#X connect 76 0 81 0;
#X connect 77 0 80 0;
#X connect 78 0 79 0;
#X connect 79 0 7 0;
#X connect 79 0 129 0;
#X connect 80 0 78 0;
#X connect 82 0 83 0;
#X connect 83 0 85 0;
#X connect 83 0 88 0;
#X connect 83 0 94 0;
#X connect 83 0 102 0;
#X connect 84 0 85 1;
#X connect 85 0 86 0;
#X connect 85 0 88 1;
#X connect 86 0 95 0;
#X connect 86 0 102 1;
#X connect 87 0 88 2;
#X connect 88 0 89 0;
#X connect 89 0 96 0;
#X connect 89 0 102 2;
#X connect 100 0 50 0;
#X connect 102 0 103 0;
#X connect 103 0 105 0;
#X connect 106 0 107 1;
#X connect 106 0 108 0;
#X connect 106 0 109 1;
#X connect 106 0 110 1;
#X connect 106 0 111 1;
#X connect 107 0 14 0;
#X connect 109 0 15 0;
#X connect 110 0 36 0;
#X connect 111 0 38 0;
#X connect 114 0 115 0;
#X connect 115 0 137 0;
#X connect 116 0 113 1;
#X connect 116 0 135 0;
#X connect 117 0 118 0;
#X connect 119 0 120 0;
#X connect 120 0 123 0;
#X connect 121 0 124 0;
#X connect 122 0 121 0;
#X connect 123 0 125 0;
#X connect 124 0 125 1;
#X connect 125 0 130 0;
#X connect 129 0 113 0;
#X connect 129 0 128 0;
#X connect 129 0 132 1;
#X connect 130 0 127 0;
#X connect 131 0 132 0;
#X connect 132 0 133 0;
#X connect 134 0 133 1;
#X connect 134 1 131 0;
#X connect 135 0 136 0;
#X connect 136 0 134 0;
#X connect 137 0 116 0;
#X connect 137 0 114 1;
#X connect 138 0 42 4;
#X connect 138 0 129 2;
#X connect 138 0 139 0;
#X coords 0 -1 1 1 550 350 2 100 100;
