#N canvas -7 0 1918 988 12;
#X obj 896 554 output~;
#X obj 464 616 s d1;
#X obj 572 616 s d2;
#X obj 681 614 s d1;
#X obj 790 613 s d2;
#X obj 897 251 r d1;
#X obj 977 252 r d2;
#X obj 1058 253 r d1;
#X obj 1139 253 r d2;
#X text 780 122 IPF + RAVE Example;
#X text 241 651 > Description;
#X text 276 686 In this example patch \, we are using the IPF \, specifically the first 4 derivates from the computed G value as the modulation source for a percussion RAVE model.;
#X text 245 190 1) IPF creates modulations. Try modulating the Frequency and Alpha parameters to see how it affects the behaviour of the RAVE model.;
#X text 896 191 2) Resulting IPF modulations are decoded back into audio using a pre-trained RAVE percussion.ts model.;
#X text 1228 793 Last Modified: 15/April/2025;
#X obj 897 377 +~;
#X obj 977 375 +~;
#X obj 1058 372 +~;
#X obj 1139 370 +~;
#X obj 1237 302 vsl 19 162 -3 3 0 0 empty empty empty 0 -9 0 12 #fcfcfc #000000 #000000 0 1;
#X floatatom 1237 472 5 0 0 0 - - - 0;
#X obj 1288 302 vsl 19 162 -3 3 0 0 empty empty empty 0 -9 0 12 #fcfcfc #000000 #000000 0 1;
#X floatatom 1288 472 5 0 0 0 - - - 0;
#X obj 1335 301 vsl 19 162 -3 3 0 0 empty empty empty 0 -9 0 12 #fcfcfc #000000 #000000 0 1;
#X floatatom 1335 471 5 0 0 0 - - - 0;
#X obj 1386 301 vsl 19 162 -3 3 0 0 empty empty empty 0 -9 0 12 #fcfcfc #000000 #000000 0 1;
#X floatatom 1386 471 5 0 0 0 - - - 0;
#X text 1234 262 3) Steer the IPF modulations by biasing the RAVE parameters;
#X msg 1424 280 0;
#X obj 247 252 ipf;
#X obj 897 475 nn~ bulgarian_choir.ts decode, f 35;
#X obj 1056 555 nn~ reza_stereo.ts decode, f 35;
#X connect 5 0 15 0;
#X connect 6 0 16 0;
#X connect 7 0 17 0;
#X connect 8 0 18 0;
#X connect 15 0 30 0;
#X connect 15 0 30 4;
#X connect 15 0 30 8;
#X connect 15 0 30 12;
#X connect 15 0 31 0;
#X connect 16 0 30 1;
#X connect 16 0 30 5;
#X connect 16 0 30 9;
#X connect 16 0 30 13;
#X connect 16 0 31 1;
#X connect 17 0 30 2;
#X connect 17 0 30 6;
#X connect 17 0 30 10;
#X connect 17 0 30 14;
#X connect 17 0 31 2;
#X connect 18 0 30 3;
#X connect 18 0 30 7;
#X connect 18 0 30 11;
#X connect 18 0 30 15;
#X connect 18 0 31 3;
#X connect 19 0 20 0;
#X connect 20 0 15 1;
#X connect 21 0 22 0;
#X connect 22 0 16 1;
#X connect 23 0 24 0;
#X connect 24 0 17 1;
#X connect 25 0 26 0;
#X connect 26 0 18 1;
#X connect 28 0 19 0;
#X connect 28 0 21 0;
#X connect 28 0 23 0;
#X connect 28 0 25 0;
#X connect 29 2 1 0;
#X connect 29 3 2 0;
#X connect 29 4 3 0;
#X connect 29 5 4 0;
#X connect 30 0 0 0;
#X connect 31 0 0 1;
#X coords 0 988 1 987 900 460 0;
