#N canvas 8 20 1920 997 12;
#X obj 860 563 output~;
#X obj 428 625 s d1;
#X obj 536 625 s d2;
#X obj 645 623 s d1;
#X obj 754 622 s d2;
#X obj 861 260 r d1;
#X obj 941 261 r d2;
#X obj 1022 262 r d1;
#X obj 1103 262 r d2;
#X text 744 131 IPF + RAVE Example;
#X text 215 660 > Description;
#X text 209 199 1) IPF creates modulations. Try modulating the Frequency and Alpha parameters to see how it affects the behaviour of the RAVE model.;
#X text 861 210 2) Resulting IPF modulations are decoded back into audio using a pre-trained RAVE percussion.ts model.;
#X obj 861 386 +~;
#X obj 941 384 +~;
#X obj 1022 381 +~;
#X obj 1103 379 +~;
#X obj 1202 312 vsl 19 162 -3 3 0 0 empty empty empty 0 -9 0 12 #fcfcfc #000000 #000000 0 1;
#X floatatom 1202 482 5 0 0 0 - - - 0;
#X obj 1253 312 vsl 19 162 -3 3 0 0 empty empty empty 0 -9 0 12 #fcfcfc #000000 #000000 0 1;
#X floatatom 1253 482 5 0 0 0 - - - 0;
#X obj 1300 312 vsl 19 162 -3 3 0 0 empty empty empty 0 -9 0 12 #fcfcfc #000000 #000000 0 1;
#X floatatom 1300 481 5 0 0 0 - - - 0;
#X obj 1351 311 vsl 19 162 -3 3 0 0 empty empty empty 0 -9 0 12 #fcfcfc #000000 #000000 0 1;
#X floatatom 1351 481 5 0 0 0 - - - 0;
#X msg 1389 290 0;
#X obj 211 261 ipf;
#X obj 861 484 nn~ percussion.ts decode, f 35;
#X obj 1421 290 loadbang;
#X obj 1202 507 s b1;
#X obj 1253 506 s b2;
#X obj 1300 505 s b3;
#X obj 1351 506 s b4;
#X obj 879 350 r b1;
#X obj 959 350 r b2;
#X obj 1040 349 r b3;
#X obj 1121 349 r b4;
#X text 1187 731 Last Modified: 16/April/2025;
#X text 1200 267 3) Offset the IPF trajectories in latent space by biasing the RAVE parameters;
#X text 227 691 In this example patch \, we are using the IPF \, specifically the first 4 derivates from the computed G value \, as the modulation source for a percussion RAVE model. Considering the IPF is a deterministic chaotic system \, the combination of alpha \, beta and initial value will converge towards the same IPF behaviour \, enabling the creation of repeatable 'loops' and phrases \, especially within the 1st and 2nd order bifurcation scenarios.;
#X text 1186 754 Author: Moises Horta Valenzuela | @hexorcismos;
#X connect 5 0 13 0;
#X connect 6 0 14 0;
#X connect 7 0 15 0;
#X connect 8 0 16 0;
#X connect 13 0 27 0;
#X connect 14 0 27 1;
#X connect 15 0 27 2;
#X connect 16 0 27 3;
#X connect 17 0 18 0;
#X connect 18 0 29 0;
#X connect 19 0 20 0;
#X connect 20 0 30 0;
#X connect 21 0 22 0;
#X connect 22 0 31 0;
#X connect 23 0 24 0;
#X connect 24 0 32 0;
#X connect 25 0 17 0;
#X connect 25 0 19 0;
#X connect 25 0 21 0;
#X connect 25 0 23 0;
#X connect 26 2 1 0;
#X connect 26 3 2 0;
#X connect 26 4 3 0;
#X connect 26 5 4 0;
#X connect 27 0 0 0;
#X connect 27 1 0 1;
#X connect 28 0 25 0;
#X connect 33 0 13 1;
#X connect 34 0 14 1;
#X connect 35 0 15 1;
#X connect 36 0 16 1;
#X coords 0 997 1 996 900 460 0;
